<svg id="Capa_1" enable-background="new 0 0 512 512" height="512" viewBox="0 0 512 512" width="512" xmlns="http://www.w3.org/2000/svg"><g><path d="m433.121 277.877c-47.561-23.78-110.464-36.877-177.121-36.877s-129.56 13.097-177.121 36.877c-50.866 25.433-78.879 60.458-78.879 98.623 0 29.672 16.953 57.586 49.027 80.723 4.807 3.468 11.204 3.78 16.325.796l67.948-39.578-14.357 58.255c-1.918 7.784 2.623 15.7 10.311 17.974 38.34 11.337 82.167 17.33 126.746 17.33 66.657 0 129.56-13.097 177.121-36.877 50.866-25.433 78.879-60.458 78.879-98.623s-28.013-73.19-78.879-98.623z" fill="#85c782"/><path d="m433.121 475.123c50.866-25.433 78.879-60.458 78.879-98.623s-28.013-73.19-78.879-98.623c-47.561-23.78-110.464-36.877-177.121-36.877v271c66.657 0 129.56-13.097 177.121-36.877z" fill="#569759"/><path d="m230.077 183.494c-59.623-79.122-171.966-92.496-176.72-93.026-7.899-.876-15.122 4.557-16.453 12.398-.8 4.715-18.91 116.393 40.713 195.515s171.965 92.496 176.719 93.026c.564.063 1.124.094 1.68.094 7.224 0 13.538-5.211 14.773-12.492.8-4.715 18.91-116.392-40.712-195.515z" fill="#e8a1cd"/><path d="m475.116 102.866c-1.33-7.84-8.549-13.275-16.453-12.398-4.753.53-117.096 13.904-176.719 93.026-59.623 79.123-41.513 190.8-40.713 195.515 1.235 7.281 7.549 12.492 14.773 12.492.555 0 1.116-.031 1.68-.094 4.753-.53 117.096-13.904 176.719-93.026 59.623-79.123 41.514-190.8 40.713-195.515z" fill="#e488a5"/><path d="m311.383 59.724c-22.129-33.797-44.155-54.753-45.083-55.628-5.781-5.461-14.819-5.461-20.601 0-.927.875-22.954 21.831-45.083 55.628-29.625 45.246-45.284 92.283-45.284 136.026s15.659 90.781 45.284 136.026c22.129 33.797 44.155 54.752 45.083 55.628 2.891 2.73 6.595 4.096 10.3 4.096s7.41-1.365 10.3-4.096c.927-.875 22.954-21.831 45.083-55.628 29.625-45.246 45.284-92.283 45.284-136.026s-15.658-90.781-45.283-136.026z" fill="#e279a5"/><path d="m266.3 387.404c.927-.875 22.954-21.831 45.083-55.628 29.625-45.246 45.284-92.283 45.284-136.026s-15.659-90.781-45.284-136.026c-22.129-33.797-44.155-54.753-45.083-55.628-2.89-2.731-6.595-4.096-10.3-4.096v391.5c3.705 0 7.41-1.365 10.3-4.096z" fill="#de5e77"/></g></svg>